<svg width="124" height="124" viewBox="0 0 124 124" fill="none" xmlns="http://www.w3.org/2000/svg">
<path d="M62 124C96.2417 124 124 96.2417 124 62C124 27.7583 96.2417 0 62 0C27.7583 0 0 27.7583 0 62C0 96.2417 27.7583 124 62 124Z" fill="url(#paint0_linear_59:2)"/>
<path d="M86.529 58.512H65.489V37.471C65.4735 36.556 65.0991 35.6838 64.4466 35.0422C63.794 34.4006 62.9156 34.0411 62.0004 34.0411C61.0853 34.0411 60.2069 34.4006 59.5543 35.0422C58.9018 35.6838 58.5274 36.556 58.5119 37.471V58.511H37.471C36.556 58.5265 35.6837 58.9009 35.0421 59.5534C34.4005 60.2059 34.041 61.0844 34.041 61.9995C34.041 62.9146 34.4005 63.7931 35.0421 64.4456C35.6837 65.0982 36.556 65.4725 37.471 65.488H58.511V86.528C58.5264 87.443 58.9008 88.3153 59.5533 88.9568C60.2059 89.5984 61.0843 89.9579 61.9994 89.9579C62.9146 89.9579 63.793 89.5984 64.4456 88.9568C65.0981 88.3153 65.4725 87.443 65.488 86.528V65.489H86.5279C87.4429 65.4735 88.3152 65.0992 88.9568 64.4466C89.5984 63.7941 89.9579 62.9156 89.9579 62.0005C89.9579 61.0854 89.5984 60.2069 88.9568 59.5544C88.3152 58.9019 87.4429 58.5275 86.5279 58.512H86.529Z" fill="white"/>
<defs>
<linearGradient id="paint0_linear_59:2" x1="62" y1="0" x2="62" y2="124" gradientUnits="userSpaceOnUse">
<stop stop-color="#BB3CE1"/>
<stop offset="1" stop-color="#D946E4"/>
</linearGradient>
</defs>
</svg>